<svg width="679" height="477" viewBox="0 0 679 477" fill="none" xmlns="http://www.w3.org/2000/svg">
<path d="M291.401 331.64L297.087 324.184C301.51 318.496 310.609 322.288 309.471 329.492L308.081 338.339C307.323 343.015 311.367 347.06 316.042 346.301L324.888 344.911C331.965 343.774 335.882 353 330.195 357.297L322.74 362.984C319.075 365.765 319.075 371.326 322.74 374.107L330.195 379.794C335.882 384.218 332.091 393.317 324.888 392.18L316.042 390.79C311.367 390.031 307.323 394.076 308.081 398.752L309.471 407.599C310.609 414.677 301.384 418.595 297.087 412.907L291.401 405.451C288.621 401.785 283.061 401.785 280.281 405.451L274.594 412.907C270.171 418.595 261.073 414.803 262.21 407.599L263.6 398.752C264.359 394.076 260.315 390.031 255.639 390.79L246.794 392.18C239.717 393.317 235.8 384.091 241.486 379.794L248.942 374.107C252.606 371.326 252.606 365.765 248.942 362.984L241.486 357.297C235.8 352.873 239.591 343.774 246.794 344.911L255.639 346.301C260.315 347.06 264.359 343.015 263.6 338.339L262.21 329.492C261.073 322.414 270.298 318.496 274.594 324.184L280.281 331.64C283.061 335.306 288.621 335.306 291.401 331.64Z" fill="#FFC400"/>
<path d="M128.894 346.049L132.179 341.751C134.707 338.465 139.888 340.74 139.256 344.785L138.498 349.84C138.118 352.494 140.393 354.769 143.047 354.39L148.101 353.632C152.145 353 154.42 358.182 151.134 360.709L146.838 363.996C144.69 365.639 144.69 368.798 146.838 370.315L151.134 373.601C154.42 376.129 152.145 381.311 148.101 380.679L143.047 379.92C140.393 379.541 138.118 381.816 138.498 384.47L139.256 389.526C139.888 393.57 134.707 395.845 132.179 392.559L128.894 388.262C127.251 386.113 124.092 386.113 122.575 388.262L119.29 392.559C116.763 395.845 111.582 393.57 112.213 389.526L112.972 384.47C113.351 381.816 111.076 379.541 108.422 379.92L103.368 380.679C99.324 381.311 97.0494 376.129 100.335 373.601L104.631 370.315C106.78 368.672 106.78 365.512 104.631 363.996L100.335 360.709C97.0494 358.182 99.324 353 103.368 353.632L108.422 354.39C111.076 354.769 113.351 352.494 112.972 349.84L112.213 344.785C111.582 340.74 116.763 338.465 119.29 341.751L122.575 346.049C124.092 348.197 127.251 348.197 128.894 346.049Z" fill="#FFC400"/>
<path d="M245.024 436.163L236.432 429.591C232.261 426.431 232.261 420.112 236.432 416.952L245.024 410.38C251.596 405.451 247.173 394.96 238.959 396.224L228.85 397.741C223.542 398.499 218.993 393.949 219.751 388.641L221.268 378.656C222.531 370.568 212.043 366.144 207.115 372.59L200.544 381.184C197.384 385.355 191.066 385.355 187.907 381.184L181.336 372.59C176.408 366.018 165.919 370.441 167.183 378.656L168.699 388.641C169.584 393.949 164.908 398.499 159.727 397.741L149.744 396.224C141.657 394.96 137.234 405.451 143.679 410.38L152.272 416.952C156.442 420.112 156.442 426.431 152.272 429.591L143.679 436.163C137.108 441.092 141.53 451.582 149.744 450.318L159.727 448.801C165.035 447.917 169.584 452.593 168.699 457.775L167.183 467.76C165.919 475.848 176.408 480.272 181.336 473.826L187.907 465.232C191.066 461.061 197.384 461.061 200.544 465.232L207.115 473.826C212.043 480.398 222.531 475.975 221.268 467.76L219.751 457.775C218.993 452.467 223.542 447.917 228.85 448.801L238.959 450.318C247.173 451.582 251.596 441.092 245.024 436.163ZM194.478 448.422C180.578 448.422 169.331 437.174 169.331 423.271C169.331 409.369 180.578 398.12 194.478 398.12C208.378 398.12 219.625 409.369 219.625 423.271C219.625 437.174 208.378 448.422 194.478 448.422Z" fill="#13C0D4"/>
<path d="M542.112 178.585C542.112 189.96 540.975 201.209 538.7 211.952C535.414 228.129 529.728 243.422 522.02 257.451C518.734 263.391 515.196 269.079 511.278 274.513C481.456 316.221 432.552 343.268 377.456 343.268C286.473 343.268 212.801 269.584 212.801 178.585C212.801 87.5864 286.473 13.9026 377.456 13.9026C465.913 13.9026 538.068 83.6684 541.985 171.128C542.112 173.656 542.112 176.184 542.112 178.585Z" fill="#13C0D4"/>
<path d="M491.944 432.75H467.177V420.364C467.177 255.934 334.745 122.09 172.111 122.09H159.727V97.3182H172.111C348.519 97.3182 491.944 242.285 491.944 420.364V432.75Z" fill="#FFC400"/>
<path d="M631.832 293.598L602.136 329.745L626.398 359.193H73.9243C64.3205 339.982 64.3205 320.771 64.3205 301.434C64.3205 224.464 131.674 157.099 208.631 157.099C256.777 157.099 295.192 176.31 324.13 205.253C352.941 147.494 410.691 99.4668 487.648 99.4668C541.606 99.4668 589.626 123.733 621.217 162.029L602.136 185.284L631.832 221.431L602.136 257.577L631.832 293.598Z" fill="#F25C5C"/>
<path d="M30.5807 247.466C36.6463 247.466 39.8054 250.5 42.8382 253.533C45.871 256.566 52.063 262.759 61.1613 262.759C70.3861 262.759 76.4517 256.693 79.4845 253.533C82.5173 250.5 85.5501 247.466 91.742 247.466C97.8076 247.466 100.967 250.5 104 253.533C107.032 256.566 113.224 262.759 122.323 262.759C131.547 262.759 137.613 256.693 140.646 253.533C143.679 250.5 146.711 247.466 152.903 247.466C158.969 247.466 162.128 250.5 165.161 253.533C168.194 256.566 174.386 262.759 183.484 262.759V253.533C177.418 253.533 174.259 250.5 171.226 247.466C168.194 244.433 162.002 238.24 152.903 238.24C143.805 238.24 137.613 244.307 134.58 247.466C131.547 250.5 128.515 253.533 122.323 253.533C116.257 253.533 113.098 250.5 110.065 247.466C107.032 244.433 100.84 238.24 91.742 238.24C82.5173 238.24 76.4517 244.307 73.4189 247.466C70.3861 250.626 67.3533 253.533 61.1613 253.533C55.0958 253.533 51.9366 250.5 48.9038 247.466C45.871 244.433 39.6791 238.24 30.5807 238.24C21.3559 238.24 15.2903 244.307 12.2575 247.466C9.22475 250.626 6.19195 253.533 0 253.533V262.759C9.22475 262.759 15.2903 256.693 18.3231 253.533C21.3559 250.5 24.3887 247.466 30.5807 247.466ZM30.5807 284.119C36.6463 284.119 39.8054 287.152 42.8382 290.185C45.871 293.219 52.063 299.412 61.1613 299.412C70.3861 299.412 76.4517 293.345 79.4845 290.185C82.5173 287.152 85.5501 284.119 91.742 284.119C97.8076 284.119 100.967 287.152 104 290.185C107.032 293.219 113.224 299.412 122.323 299.412C131.547 299.412 137.613 293.345 140.646 290.185C143.679 287.152 146.711 284.119 152.903 284.119C158.969 284.119 162.128 287.152 165.161 290.185C168.194 293.219 174.386 299.412 183.484 299.412V290.185C177.418 290.185 174.259 287.152 171.226 284.119C168.194 281.085 162.002 274.892 152.903 274.892C143.679 274.892 137.613 280.959 134.58 284.119C131.547 287.152 128.515 290.185 122.323 290.185C116.257 290.185 113.098 287.152 110.065 284.119C107.032 281.085 100.84 274.892 91.742 274.892C82.5173 274.892 76.4517 280.959 73.4189 284.119C70.3861 287.278 67.3533 290.185 61.1613 290.185C55.0958 290.185 51.9366 287.152 48.9038 284.119C45.871 281.085 39.6791 274.892 30.5807 274.892C21.3559 274.892 15.2903 280.959 12.2575 284.119C9.22475 287.278 6.19195 290.185 0 290.185V299.412C9.22475 299.412 15.2903 293.345 18.3231 290.185C21.3559 287.026 24.3887 284.119 30.5807 284.119ZM18.3231 326.838C21.3559 323.804 24.3887 320.771 30.5807 320.771C36.6463 320.771 39.8054 323.804 42.8382 326.838C45.871 329.871 52.063 336.064 61.1613 336.064C70.3861 336.064 76.4517 329.997 79.4845 326.838C82.5173 323.804 85.5501 320.771 91.742 320.771C97.8076 320.771 100.967 323.804 104 326.838C107.032 329.871 113.224 336.064 122.323 336.064C131.547 336.064 137.613 329.997 140.646 326.838C143.679 323.804 146.711 320.771 152.903 320.771C158.969 320.771 162.128 323.804 165.161 326.838C168.194 329.871 174.386 336.064 183.484 336.064V326.838C177.418 326.838 174.259 323.804 171.226 320.771C168.194 317.738 162.002 311.545 152.903 311.545C143.679 311.545 137.613 317.611 134.58 320.771C131.547 323.804 128.515 326.838 122.323 326.838C116.257 326.838 113.098 323.804 110.065 320.771C107.032 317.738 100.84 311.545 91.742 311.545C82.5173 311.545 76.4517 317.611 73.4189 320.771C70.3861 323.804 67.3533 326.838 61.1613 326.838C55.0958 326.838 51.9366 323.804 48.9038 320.771C45.871 317.738 39.6791 311.545 30.5807 311.545C21.3559 311.545 15.2903 317.611 12.2575 320.771C9.22475 323.931 6.19195 326.838 0 326.838V336.064C9.22475 336.064 12.2575 333.031 18.3231 326.838Z" fill="#13C0D4"/>
<path d="M512.921 377.266L524.926 393.949C525.684 394.96 527.201 394.96 527.959 393.949L539.964 377.266C540.848 376.002 539.964 374.359 538.447 374.359H514.438C512.921 374.359 512.037 376.129 512.921 377.266Z" fill="#13C0D4"/>
<path d="M512.921 416.067L524.926 432.75C525.684 433.761 527.201 433.761 527.959 432.75L539.964 416.067C540.848 414.803 539.964 413.16 538.447 413.16H514.438C512.921 413.16 512.037 414.803 512.921 416.067Z" fill="#13C0D4"/>
<path d="M512.921 454.742L524.926 471.425C525.684 472.436 527.201 472.436 527.959 471.425L539.964 454.742C540.848 453.478 539.964 451.835 538.447 451.835H514.438C512.921 451.835 512.037 453.478 512.921 454.742Z" fill="#13C0D4"/>
<path d="M592.406 432.75H567.638V420.364C567.638 202.22 390.219 24.7719 172.111 24.7719H159.727V0H172.111C403.867 0 592.406 188.57 592.406 420.364V432.75Z" fill="#FFC400"/>
<path d="M391.61 435.91H366.842V423.524C366.842 314.452 279.522 225.728 172.111 225.728H159.727V200.956H172.111C293.17 200.956 391.61 300.802 391.61 423.65V435.91Z" fill="#FFC400"/>
<path d="M678.588 272.617C678.588 301.434 668.984 330.377 649.776 359.193H644.216L619.954 329.745L649.65 293.598L619.954 257.451L649.65 221.304L619.954 185.157L639.035 161.902C663.803 191.982 678.588 230.404 678.588 272.617Z" fill="#13C0D4"/>
<path d="M567.891 147.368C562.204 157.479 561.319 158.743 550.831 164.43C560.94 170.117 562.204 171.002 567.891 181.492C573.577 171.381 574.462 170.117 584.95 164.43C574.462 158.743 573.198 157.984 567.891 147.368Z" fill="#FFC400"/>
<path d="M563.594 37.0315C552.474 57.0007 550.831 59.402 530.107 70.5241C550.073 81.6462 552.474 83.2893 563.594 104.017C574.714 84.0476 576.357 81.6462 597.081 70.5241C576.357 59.402 573.956 57.8854 563.594 37.0315Z" fill="#13C0D4"/>
<path d="M517.849 123.733C514.943 128.789 514.564 129.421 509.257 132.328C514.311 135.234 514.943 135.614 517.849 140.922C520.756 135.866 521.135 135.234 526.442 132.328C521.135 129.421 520.503 129.041 517.849 123.733Z" fill="#777CD9"/>
<path d="M204.208 423.271C204.208 428.706 199.785 433.003 194.478 433.003C189.044 433.003 184.748 428.579 184.748 423.271C184.748 417.836 189.171 413.539 194.478 413.539C199.912 413.539 204.208 417.836 204.208 423.271Z" fill="#13C0D4"/>
<path d="M382.511 309.902V307.753C382.511 304.467 385.165 301.939 388.324 301.939C391.609 301.939 394.137 304.594 394.137 307.753V309.902C394.137 313.188 391.483 315.716 388.324 315.716C385.165 315.716 382.511 313.188 382.511 309.902Z" fill="white"/>
<path d="M382.511 281.717V279.569C382.511 276.283 385.165 273.755 388.324 273.755C391.609 273.755 394.137 276.409 394.137 279.569V281.717C394.137 285.003 391.483 287.531 388.324 287.531C385.165 287.531 382.511 284.877 382.511 281.717Z" fill="#13C0D4"/>
<path d="M382.511 197.038V194.889C382.511 191.603 385.165 189.075 388.324 189.075C391.609 189.075 394.137 191.73 394.137 194.889V197.038C394.137 200.324 391.483 202.852 388.324 202.852C385.165 202.852 382.511 200.198 382.511 197.038Z" fill="white"/>
<path d="M404.752 309.902V307.753C404.752 304.467 407.405 301.939 410.564 301.939C413.85 301.939 416.377 304.594 416.377 307.753V309.902C416.377 313.188 413.724 315.716 410.564 315.716C407.405 315.716 404.752 313.188 404.752 309.902Z" fill="#13C0D4"/>
<path d="M404.752 281.717V279.569C404.752 276.283 407.405 273.755 410.564 273.755C413.85 273.755 416.377 276.409 416.377 279.569V281.717C416.377 285.003 413.724 287.531 410.564 287.531C407.405 287.531 404.752 284.877 404.752 281.717Z" fill="white"/>
<path d="M404.752 225.222V223.074C404.752 219.788 407.405 217.26 410.564 217.26C413.85 217.26 416.377 219.914 416.377 223.074V225.222C416.377 228.508 413.724 231.036 410.564 231.036C407.405 231.036 404.752 228.508 404.752 225.222Z" fill="white"/>
<path d="M404.752 197.038V194.889C404.752 191.603 407.405 189.075 410.564 189.075C413.85 189.075 416.377 191.73 416.377 194.889V197.038C416.377 200.324 413.724 202.852 410.564 202.852C407.405 202.852 404.752 200.198 404.752 197.038Z" fill="#13C0D4"/>
<path d="M404.752 140.543V138.394C404.752 135.108 407.405 132.58 410.564 132.58C413.85 132.58 416.377 135.234 416.377 138.394V140.543C416.377 143.829 413.724 146.357 410.564 146.357C407.405 146.357 404.752 143.702 404.752 140.543Z" fill="white"/>
<path d="M426.992 338.086V335.938C426.992 332.651 429.646 330.124 432.805 330.124C436.09 330.124 438.618 332.778 438.618 335.938V338.086C438.618 341.372 435.964 343.9 432.805 343.9C429.646 344.026 426.992 341.372 426.992 338.086Z" fill="white"/>
<path d="M426.992 253.407V251.258C426.992 247.972 429.646 245.444 432.805 245.444C436.09 245.444 438.618 248.098 438.618 251.258V253.407C438.618 256.693 435.964 259.22 432.805 259.22C429.646 259.347 426.992 256.693 426.992 253.407Z" fill="white"/>
<path d="M426.992 225.222V223.074C426.992 219.788 429.646 217.26 432.805 217.26C436.09 217.26 438.618 219.914 438.618 223.074V225.222C438.618 228.508 435.964 231.036 432.805 231.036C429.646 231.036 426.992 228.508 426.992 225.222Z" fill="#13C0D4"/>
<path d="M426.992 197.038V194.889C426.992 191.603 429.646 189.075 432.805 189.075C436.09 189.075 438.618 191.73 438.618 194.889V197.038C438.618 200.324 435.964 202.852 432.805 202.852C429.646 202.852 426.992 200.198 426.992 197.038Z" fill="white"/>
<path d="M426.992 140.543V138.394C426.992 135.108 429.646 132.58 432.805 132.58C436.09 132.58 438.618 135.234 438.618 138.394V140.543C438.618 143.829 435.964 146.357 432.805 146.357C429.646 146.357 426.992 143.702 426.992 140.543Z" fill="#13C0D4"/>
</svg>
